Coordinates
version=1
nRows=27
nColumns=38
inDegrees=no

Units are S.I. units (second, meters, Newtons, ...)
If the header above contains a line with 'inDegrees', this indicates whether rotational values are in degrees (yes) or radians (no).

endheader
time	pelvis_tilt	pelvis_list	pelvis_rotation	pelvis_tx	pelvis_ty	pelvis_tz	hip_flexion_r	hip_adduction_r	hip_rotation_r	knee_angle_r	ankle_angle_r	subtalar_angle_r	mtp_angle_r	hip_flexion_l	hip_adduction_l	hip_rotation_l	knee_angle_l	ankle_angle_l	subtalar_angle_l	mtp_angle_l	lumbar_extension	lumbar_bending	lumbar_rotation	arm_flex_r	arm_add_r	arm_rot_r	elbow_flex_r	pro_sup_r	wrist_flex_r	wrist_dev_r	arm_flex_l	arm_add_l	arm_rot_l	elbow_flex_l	pro_sup_l	wrist_flex_l	wrist_dev_l
0	1.74207	1.44448	-0.185525	0.66625	-0.535999	0.933346	0.371545	0.0742085	-0.219682	0.495017	0.0531914	0	0	0.0665623	-0.14811	-0.145102	1.19109	-0.148909	0	0	-0.0730217	0.17633	-0.147467	0.0984289	-0.149816	-0.13517	0.163958	1.5708	0	0	-0.1279	-0.426866	0.616702	0.744217	0.849419	0	0
0.01	1.73468	1.44672	-0.17373	0.666994	-0.525367	0.934978	0.358052	0.0758146	-0.211842	0.492075	0.0627904	0	0	0.104625	-0.145909	-0.131744	1.23834	-0.130997	0	0	-0.0728682	0.174854	-0.145095	0.0948069	-0.148858	-0.132353	0.170152	1.5708	0	0	-0.126298	-0.426371	0.617296	0.742919	0.84659	0	0
0.02	1.75396	1.44756	-0.188565	0.66764	-0.514381	0.937113	0.336653	0.0776872	-0.20874	0.48132	0.070031	0	0	0.136783	-0.143228	-0.11855	1.27715	-0.109447	0	0	-0.0756371	0.174507	-0.142101	0.0908513	-0.148404	-0.132041	0.174738	1.5708	0	0	-0.124662	-0.426288	0.621396	0.741486	0.834234	0	0
0.03	1.78197	1.44856	-0.211771	0.668176	-0.503473	0.939374	0.313049	0.0783028	-0.209192	0.467978	0.0764611	0	0	0.167561	-0.138764	-0.105081	1.30989	-0.0874453	0	0	-0.0792908	0.173779	-0.138379	0.0868063	-0.14811	-0.136167	0.178316	1.5708	0	0	-0.121477	-0.426756	0.627936	0.740296	0.817654	0	0
0.04	1.79713	1.45034	-0.222338	0.668693	-0.492678	0.941485	0.291528	0.0775964	-0.212266	0.45483	0.082809	0	0	0.199989	-0.132459	-0.0912984	1.33679	-0.0699523	0	0	-0.0810577	0.172647	-0.134041	0.08172	-0.148134	-0.143235	0.18519	1.568	0	0	-0.117663	-0.426746	0.633594	0.737255	0.80613	0	0
0.05	1.80158	1.45224	-0.22287	0.669228	-0.481993	0.943426	0.271497	0.0769172	-0.215801	0.441738	0.0891299	0	0	0.233229	-0.125471	-0.0778872	1.3575	-0.0585759	0	0	-0.0814242	0.171643	-0.127704	0.0760448	-0.148769	-0.150401	0.190801	1.56375	0	0	-0.112463	-0.427018	0.641252	0.733979	0.793505	0	0
0.06	1.80251	1.45407	-0.2203	0.669822	-0.471359	0.945229	0.25178	0.0765519	-0.21927	0.428476	0.0956231	0	0	0.265969	-0.118437	-0.0652421	1.37254	-0.0508916	0	0	-0.0813963	0.170602	-0.120224	0.0707615	-0.149633	-0.156781	0.193038	1.55992	0	0	-0.106888	-0.427387	0.646649	0.732152	0.781574	0	0
0.07	1.80495	1.45575	-0.220184	0.670529	-0.460745	0.946926	0.231435	0.0766936	-0.222206	0.414238	0.101787	0	0	0.297283	-0.111907	-0.0542752	1.38229	-0.0450435	0	0	-0.0817773	0.169463	-0.112409	0.0670545	-0.15037	-0.162813	0.191444	1.55726	0	0	-0.10344	-0.428529	0.64781	0.733521	0.77178	0	0
0.08	1.81092	1.45746	-0.225541	0.67139	-0.450145	0.948554	0.210511	0.0772604	-0.223384	0.399096	0.107196	0	0	0.326641	-0.106355	-0.0463723	1.38694	-0.0381742	0	0	-0.0831257	0.167967	-0.103157	0.0638868	-0.150939	-0.170061	0.191281	1.55359	0	0	-0.101637	-0.430036	0.645548	0.736628	0.764646	0	0
0.09	1.82977	1.45983	-0.246511	0.672401	-0.439614	0.950173	0.188885	0.0773373	-0.221238	0.384999	0.112851	0	0	0.352435	-0.100528	-0.0419255	1.38605	-0.0333873	0	0	-0.0867705	0.16514	-0.0914622	0.0609071	-0.151318	-0.177034	0.193447	1.5485	0	0	-0.100646	-0.431981	0.640852	0.74119	0.759968	0	0
0.1	1.86091	1.46258	-0.281104	0.673479	-0.42911	0.951739	0.166157	0.076732	-0.218031	0.370919	0.118477	0	0	0.375213	-0.0945009	-0.0396253	1.38022	-0.0273077	0	0	-0.0920401	0.161252	-0.0787918	0.0585161	-0.151367	-0.182336	0.193702	1.54357	0	0	-0.100054	-0.434555	0.635321	0.746726	0.757272	0	0
0.11	1.93854	1.47705	-0.360101	0.674967	-0.419475	0.953823	0.146079	0.0618381	-0.216281	0.361591	0.125259	0	0	0.390837	-0.0696671	-0.0116268	1.35602	-0.00744045	0	0	-0.0996036	0.1423	-0.0685764	0.0583017	-0.147724	-0.187183	0.191786	1.53989	0	0	-0.0959711	-0.438158	0.629124	0.746852	0.75679	0	0
0.12	1.9834	1.47287	-0.411797	0.675507	-0.408484	0.955028	0.117738	0.0670711	-0.209209	0.343042	0.129873	0	0	0.407719	-0.0694844	-0.0330397	1.3482	-0.00700512	0	0	-0.107776	0.145179	-0.0540587	0.0567952	-0.148858	-0.196197	0.190875	1.53517	0	0	-0.0987631	-0.439292	0.61672	0.75561	0.759532	0	0
0.13	2.06231	1.48279	-0.493012	0.677164	-0.398655	0.956409	0.0983501	0.0574411	-0.204956	0.333968	0.136267	0	0	0.423955	-0.0517658	-0.00794761	1.3221	0.0155468	0	0	-0.114032	0.130165	-0.0440624	0.055014	-0.145494	-0.201206	0.192814	1.53273	0	0	-0.0962076	-0.443222	0.611041	0.756226	0.75944	0	0
0.14	2.0845	1.47165	-0.526522	0.678306	-0.38708	0.957125	0.0664555	0.070145	-0.192937	0.312712	0.139246	0	0	0.439456	-0.075924	-0.0494702	1.3141	0.019064	0	0	-0.123276	0.13901	-0.0265891	0.0501325	-0.147145	-0.208071	0.200291	1.5263	0	0	-0.100922	-0.445437	0.60351	0.765321	0.757771	0	0
0.15	2.14757	1.4721	-0.595117	0.679553	-0.376567	0.958121	0.0414914	0.0684386	-0.186548	0.29948	0.143827	0	0	0.451022	-0.0757937	-0.0571468	1.28765	0.0323346	0	0	-0.13185	0.133444	-0.0155236	0.0474026	-0.14535	-0.213057	0.206243	1.5204	0	0	-0.100963	-0.449159	0.600046	0.767439	0.754499	0	0
0.16	2.20734	1.47237	-0.659352	0.680688	-0.366128	0.958947	0.0173714	0.0662051	-0.181634	0.286798	0.148636	0	0	0.461331	-0.0742881	-0.0632856	1.25678	0.0440389	0	0	-0.13998	0.127767	-0.00625526	0.044851	-0.143211	-0.218588	0.21209	1.51506	0	0	-0.100686	-0.452865	0.597634	0.768407	0.749186	0	0
0.17	2.25874	1.47228	-0.714088	0.681733	-0.355736	0.959548	-0.00616273	0.0643371	-0.178134	0.273703	0.153503	0	0	0.470428	-0.0721	-0.0677583	1.22238	0.0557462	0	0	-0.147462	0.122591	0.000803523	0.0429506	-0.140649	-0.225349	0.21741	1.51095	0	0	-0.100718	-0.456382	0.595243	0.768484	0.742275	0	0
0.18	2.29591	1.47203	-0.753748	0.682713	-0.345413	0.959873	-0.0287855	0.0634657	-0.175184	0.259714	0.15812	0	0	0.478946	-0.070937	-0.0726707	1.18445	0.0678546	0	0	-0.15382	0.118298	0.00614421	0.0419068	-0.137656	-0.232138	0.221938	1.50761	0	0	-0.101039	-0.459788	0.593265	0.768007	0.734895	0	0
0.19	2.31941	1.47204	-0.779204	0.683646	-0.335108	0.959912	-0.0493806	0.0629994	-0.17298	0.247275	0.162818	0	0	0.486838	-0.0708953	-0.0790642	1.14248	0.0799843	0	0	-0.158719	0.114525	0.0101407	0.0412328	-0.134373	-0.237615	0.226717	1.50578	0	0	-0.101503	-0.462889	0.591915	0.766483	0.728824	0	0
0.2	2.33251	1.47282	-0.793893	0.684523	-0.324782	0.959664	-0.0675417	0.0623073	-0.171334	0.236864	0.167817	0	0	0.493916	-0.071259	-0.0872676	1.09653	0.092095	0	0	-0.16221	0.110817	0.0130976	0.0408098	-0.130792	-0.242525	0.23211	1.50472	0	0	-0.102298	-0.46602	0.591717	0.76388	0.724006	0	0
0.21	2.34177	1.47375	-0.804098	0.68532	-0.314373	0.95923	-0.0851608	0.0615901	-0.170317	0.227054	0.173249	0	0	0.499136	-0.0719337	-0.097629	1.04635	0.103492	0	0	-0.165203	0.107219	0.0151037	0.040411	-0.126959	-0.247902	0.23828	1.50386	0	0	-0.103033	-0.46926	0.593013	0.760914	0.719406	0	0
0.22	2.34722	1.47496	-0.810613	0.686105	-0.303895	0.958599	-0.102126	0.0608384	-0.169403	0.217443	0.178797	0	0	0.502361	-0.0731714	-0.110932	0.992361	0.114926	0	0	-0.167526	0.103592	0.0166701	0.0413542	-0.122966	-0.2524	0.240276	1.50483	0	0	-0.103992	-0.472478	0.595025	0.75758	0.71612	0	0
0.23	2.35056	1.4762	-0.816303	0.686937	-0.293415	0.957817	-0.118079	0.059747	-0.168172	0.209571	0.185038	0	0	0.503095	-0.0754706	-0.128654	0.934397	0.125788	0	0	-0.16987	0.0998614	0.0194036	0.0431626	-0.118734	-0.25757	0.240503	1.50607	0	0	-0.104409	-0.475554	0.598576	0.753596	0.714191	0	0
0.24	2.36274	1.47728	-0.830891	0.687769	-0.28281	0.95696	-0.134787	0.0582577	-0.166108	0.201266	0.190497	0	0	0.500189	-0.0777772	-0.151709	0.871756	0.135164	0	0	-0.172995	0.0952853	0.0221628	0.0447014	-0.113926	-0.263987	0.241548	1.50617	0	0	-0.104682	-0.479097	0.603313	0.74987	0.712444	0	0
0.25	2.3808	1.47891	-0.851212	0.688522	-0.27201	0.955976	-0.151227	0.0557128	-0.165032	0.193789	0.196434	0	0	0.494397	-0.0790593	-0.179737	0.804366	0.143387	0	0	-0.175992	0.0897571	0.0242443	0.0459037	-0.108804	-0.271238	0.243029	1.50604	0	0	-0.105398	-0.482733	0.608525	0.746077	0.710608	0	0
0.26	2.40623	1.48056	-0.880541	0.689285	-0.261084	0.954948	-0.167676	0.0520727	-0.163801	0.187639	0.202913	0	0	0.484923	-0.0799387	-0.214607	0.731981	0.151487	0	0	-0.179541	0.083403	0.0274677	0.0474524	-0.103701	-0.279899	0.244004	1.50772	0	0	-0.106438	-0.486136	0.61374	0.742466	0.708932	0	0
